<?xml version="1.0" encoding="utf-8"?>
<!-- Generator: Adobe Illustrator 21.0.2, SVG Export Plug-In . SVG Version: 6.00 Build 0)  -->
<svg version="1.1" id="Ebene_1" xmlns="http://www.w3.org/2000/svg" xmlns:xlink="http://www.w3.org/1999/xlink" x="0px" y="0px"
	 viewBox="0 0 270.8 565" enable-background="new 0 0 270.8 565" xml:space="preserve">
<g>
	<g>
		<rect x="71.3" y="520.8" fill="#99774B" width="29.8" height="9"/>
	</g>
	<g>
		<rect x="181.2" y="520.8" fill="#99774B" width="29.8" height="9"/>
	</g>
	<g>
		<path fill="#CAA575" d="M267.8,529.5h-13.7l-0.6-176.9h3.5v-0.4h3.9v-6.5h-7.4L253,190.1h5.6v-0.2h1.4v-6.3h-7L252.4,0H249
			l-1.2,183.6H142L141.4,0H138l-1.2,183.6H86.4c0-28,0-48.9,0-51.7c-16.7,0-25.3,10-25.3,10s0,33.6,0,41.7H31L30.4,0H27l-1.2,183.6
			h-4.9v0.1h-1.8v6.4h6.6l-2.2,339.4H3c-1.9,4.9-2.9,10-3,15.2c0.2,6.9,1.2,13.7,3,20.3h264.7c0,0,3-9.4,3-18
			C270.7,541.1,269.7,535.2,267.8,529.5z M135.7,345.7h-8.1v0.5h-0.2v6.4h8.3l-1.1,176.9H32.1L31,190.1h30.1c0,36.7,0,84.4,0,166.2
			c0,0,0,0,0,0l0,0c0,82.2,0,165.1,0,165.1h49.5V357.4H86.4c0,0,0-100.4,0-167.3h50.3L135.7,345.7z M245.6,529.5H143.1l-0.6-176.9
			h27.9v168.8H220v-88.9h-24v-79.8h50.8L245.6,529.5z M246.8,345.7h-50.8v-98.6c-9.2,0-18.2,3.1-25.5,8.7l0,0v89.8h-27.9L142,190.1
			h105.8L246.8,345.7z"/>
	</g>
</g>
</svg>
